<svg xmlns="http://www.w3.org/2000/svg" width="41" height="41" viewBox="0 0 41 41">
  <defs>
    <style>
      .cls-1 {
        fill: #a5a4bf;
      }

      .cls-1, .cls-2 {
        stroke: #502d4b;
      }

      .cls-2 {
        fill: #bfbfc5;
      }
    </style>
  </defs>
  <g id="Medicamentos" transform="translate(-64.3 -62.6)">
    <g id="Grupo_391" data-name="Grupo 391" transform="translate(64.8 63.1)">
      <g id="Grupo_388" data-name="Grupo 388" transform="translate(3.86)">
        <path id="Trazado_587" data-name="Trazado 587" class="cls-1" d="M102.213,67.392h14.6a.591.591,0,0,0,.513-.643V63.743a.591.591,0,0,0-.513-.643h-14.6a.591.591,0,0,0-.513.643V66.75A.591.591,0,0,0,102.213,67.392Z" transform="translate(-101.7 -63.1)"/>
      </g>
      <path id="Trazado_588" data-name="Trazado 588" class="cls-2" d="M88.216,128.958a5.926,5.926,0,0,0-.136-1.223.68.68,0,0,1-.209.031H81.04a.726.726,0,1,1,0-1.452h6.506a5.473,5.473,0,0,0-2.28-2.229h0a5.507,5.507,0,0,1-2.96-4.873V118.6H70.82v.612a5.507,5.507,0,0,1-2.96,4.873,5.511,5.511,0,0,0-2.96,4.883v.736H88.226v-.747Zm-9.446-1.773a.51.51,0,0,1-.042.135.772.772,0,0,1-.073.124.9.9,0,0,1-.094.114.737.737,0,0,1-1.025,0,1.1,1.1,0,0,1-.094-.114.772.772,0,0,1-.073-.124.666.666,0,0,1-.042-.135.632.632,0,0,1-.01-.145c0-.052.01-.093.01-.145a.51.51,0,0,1,.042-.135.773.773,0,0,1,.073-.124.9.9,0,0,1,.094-.114,1.108,1.108,0,0,1,.115-.093.355.355,0,0,1,.126-.062.681.681,0,0,1,.136-.041.649.649,0,0,1,.282,0,.681.681,0,0,1,.136.041l.126.062c.042.031.073.062.115.093a1.1,1.1,0,0,1,.094.114.772.772,0,0,1,.073.124.666.666,0,0,1,.042.135.678.678,0,0,1,.01.145A.607.607,0,0,1,78.77,127.185Z" transform="translate(-64.89 -112.846)"/>
      <path id="Trazado_589" data-name="Trazado 589" class="cls-1" d="M64.8,394.962a4.358,4.358,0,0,0,.324,1.638,4.281,4.281,0,0,0,.931,1.389,4.336,4.336,0,0,0,3.044,1.255H83.806A4.336,4.336,0,0,0,86.861,398a4.26,4.26,0,0,0,1.266-3.017V393.5H64.8Z" transform="translate(-64.8 -359.244)"/>
      <g id="Grupo_390" data-name="Grupo 390" transform="translate(0 18.31)">
        <g id="Grupo_389" data-name="Grupo 389">
          <path id="Trazado_590" data-name="Trazado 590" class="cls-1" d="M64.8,254.174H88.126V239.7H64.8Zm6.684-9.414h2.782V242H78.66v2.758h2.793v4.355H78.67v2.758H74.277v-2.758H71.495V244.76Z" transform="translate(-64.8 -239.7)"/>
        </g>
      </g>
      <path id="Trazado_591" data-name="Trazado 591" class="cls-2" d="M333.855,316.5a6.2,6.2,0,1,0,3.87,11.063.01.01,0,0,1-.01-.01l-5.262-5.215a.728.728,0,0,1,0-1.026.743.743,0,0,1,1.036,0l5.261,5.215a.01.01,0,0,0,.01.01,6.162,6.162,0,0,0,1.349-3.836A6.225,6.225,0,0,0,333.855,316.5Zm-1.778,4.427a.732.732,0,0,1-.513.207.7.7,0,0,1-.146-.01.522.522,0,0,1-.136-.041l-.126-.062a.906.906,0,0,1-.115-.093.719.719,0,0,1-.209-.508.678.678,0,0,1,.01-.145.51.51,0,0,1,.042-.135l.063-.124a.906.906,0,0,1,.094-.114,1.112,1.112,0,0,1,.115-.093.355.355,0,0,1,.126-.062.683.683,0,0,1,.136-.041.649.649,0,0,1,.282,0,.522.522,0,0,1,.136.041l.126.062a.908.908,0,0,1,.115.093,1.11,1.11,0,0,1,.094.114.349.349,0,0,1,.063.124.666.666,0,0,1,.042.135.632.632,0,0,1,.01.145A.719.719,0,0,1,332.077,320.927Z" transform="translate(-300.11 -290.227)"/>
    </g>
  </g>
</svg>
