<svg xmlns="http://www.w3.org/2000/svg" width="36" height="41" viewBox="0 0 36 41">
  <defs>
    <style>
      .cls-1 {
        fill: #a5a4bf;
      }

      .cls-1, .cls-2 {
        stroke: #502d4b;
      }

      .cls-2 {
        fill: #bfbfc5;
      }
    </style>
  </defs>
  <g id="Contabilidad" transform="translate(-0.395 -1.628)">
    <g id="Grupo_387" data-name="Grupo 387" transform="translate(0.895 2.128)">
      <path id="Trazado_585" data-name="Trazado 585" class="cls-1" d="M5.895,52.2H38.1a2.8,2.8,0,0,0,2.791-2.8V21.421h-35Zm14.189-7a1.232,1.232,0,0,1,0,1.735,1.221,1.221,0,0,1-1.729,0l-2.471-2.484L13.413,46.93A1.224,1.224,0,1,1,11.686,45.2l2.473-2.483-2.473-2.484a1.224,1.224,0,0,1,1.727-1.735l2.472,2.484,2.471-2.483a1.224,1.224,0,0,1,1.729,1.734l-2.473,2.484ZM31.65,47.443H30.8a1.226,1.226,0,0,1,0-2.453h.854a1.226,1.226,0,0,1,0,2.453ZM27.315,28.623h7.811a1.226,1.226,0,0,1,0,2.453H27.315a1.226,1.226,0,0,1,0-2.453ZM32.873,39.2a1.225,1.225,0,0,1-1.223,1.227H30.8a1.227,1.227,0,0,1,0-2.453h.854A1.226,1.226,0,0,1,32.873,39.2Zm-5.558,2.288h7.811a1.226,1.226,0,0,1,0,2.453H27.315a1.226,1.226,0,0,1,0-2.453ZM11.981,28.623h2.681V25.93a1.221,1.221,0,1,1,2.443,0v2.693H19.79a1.226,1.226,0,0,1,0,2.453H17.1V33.77a1.221,1.221,0,1,1-2.443,0V31.075H11.981a1.226,1.226,0,0,1,0-2.453Z" transform="translate(-5.895 -12.197)"/>
      <path id="Trazado_586" data-name="Trazado 586" class="cls-2" d="M0,0H35V6.723H0Z"/>
    </g>
  </g>
</svg>
