<svg xmlns="http://www.w3.org/2000/svg" width="16" height="20" viewBox="0 0 16 20">
  <defs>
    <style>
      .cls-1 {
        fill: #a5a4bf;
      }

      .cls-2 {
        fill: #bfbfc5;
      }

      .cls-3 {
        fill: #b6b6c3;
      }
    </style>
  </defs>
  <g id="Medicamentos" transform="translate(-64.8 -63.1)">
    <g id="Grupo_321" data-name="Grupo 321" transform="translate(64.8 63.1)">
      <g id="Grupo_318" data-name="Grupo 318" transform="translate(1.544)">
        <path id="Trazado_492" data-name="Trazado 492" class="cls-1" d="M101.905,65.246h5.841c.113,0,.205-.145.205-.321v-1.5c0-.176-.092-.321-.205-.321h-5.841c-.113,0-.205.145-.205.321v1.5C101.7,65.1,101.792,65.246,101.905,65.246Z" transform="translate(-101.7 -63.1)"/>
      </g>
      <path id="Trazado_493" data-name="Trazado 493" class="cls-2" d="M74.226,123.779a3.675,3.675,0,0,0-.054-.612.222.222,0,0,1-.084.016H71.356a.371.371,0,0,1,0-.726h2.6a2.518,2.518,0,0,0-.912-1.115h0a2.9,2.9,0,0,1-1.184-2.436V118.6H67.268v.306a2.9,2.9,0,0,1-1.184,2.436,2.905,2.905,0,0,0-1.184,2.442v.368h9.331v-.373Zm-3.778-.886a.3.3,0,0,1-.017.067.416.416,0,0,1-.029.062.446.446,0,0,1-.038.057.255.255,0,0,1-.41,0,.543.543,0,0,1-.038-.057.417.417,0,0,1-.029-.062.383.383,0,0,1-.021-.14c0-.026,0-.047,0-.073a.3.3,0,0,1,.017-.067.417.417,0,0,1,.029-.062.446.446,0,0,1,.038-.057.481.481,0,0,1,.046-.047.133.133,0,0,1,.05-.031.234.234,0,0,1,.054-.021.209.209,0,0,1,.113,0,.234.234,0,0,1,.054.021l.05.031c.017.016.029.031.046.047a.543.543,0,0,1,.038.057.417.417,0,0,1,.029.062.4.4,0,0,1,.017.067.422.422,0,0,1,0,.073A.375.375,0,0,1,70.448,122.892Z" transform="translate(-64.896 -115.723)"/>
      <path id="Trazado_494" data-name="Trazado 494" class="cls-3" d="M64.8,394.231a2.659,2.659,0,0,0,.13.819,2.236,2.236,0,0,0,.372.695,1.579,1.579,0,0,0,1.218.627H72.4a1.479,1.479,0,0,0,.661-.161,1.8,1.8,0,0,0,.561-.461,2.422,2.422,0,0,0,.506-1.509V393.5H64.8Z" transform="translate(-64.8 -376.372)"/>
      <g id="Grupo_320" data-name="Grupo 320" transform="translate(0 9.155)">
        <g id="Grupo_319" data-name="Grupo 319">
          <path id="Trazado_495" data-name="Trazado 495" class="cls-1" d="M64.8,246.937h9.331V239.7H64.8Zm2.674-4.707h1.113v-1.379h1.757v1.379h1.117v2.177H70.348v1.379H68.591v-1.379H67.478V242.23Z" transform="translate(-64.8 -239.7)"/>
        </g>
      </g>
      <path id="Trazado_496" data-name="Trazado 496" class="cls-1" d="M330.1,316.5a3.171,3.171,0,0,0,0,6.2,2.2,2.2,0,0,0,1.548-.669s0,0,0-.005l-2.1-2.608a.431.431,0,0,1,0-.513.257.257,0,0,1,.414,0l2.1,2.608s0,.005,0,.005a3.59,3.59,0,0,0,.54-1.918A2.848,2.848,0,0,0,330.1,316.5Zm-.711,2.214a.266.266,0,0,1-.205.1.224.224,0,0,1-.059-.005.18.18,0,0,1-.054-.021l-.05-.031a.39.39,0,0,1-.046-.047.41.41,0,0,1-.084-.254.42.42,0,0,1,0-.073.3.3,0,0,1,.017-.067l.025-.062a.443.443,0,0,1,.038-.057.477.477,0,0,1,.046-.047.133.133,0,0,1,.05-.031.235.235,0,0,1,.054-.021.209.209,0,0,1,.113,0,.18.18,0,0,1,.054.021l.05.031a.393.393,0,0,1,.046.047.544.544,0,0,1,.038.057.2.2,0,0,1,.025.062.383.383,0,0,1,.021.14A.41.41,0,0,1,329.391,318.714Z" transform="translate(-316.604 -303.364)"/>
    </g>
  </g>
</svg>
