<svg xmlns="http://www.w3.org/2000/svg" width="15" height="17" viewBox="0 0 15 17">
  <defs>
    <style>
      .cls-1 {
        fill: #a5a4bf;
      }

      .cls-2 {
        fill: #bfbfc5;
      }
    </style>
  </defs>
  <g id="Contabilidad" transform="translate(-5.895 -1.128)">
    <g id="Grupo_322" data-name="Grupo 322" transform="translate(5.895 1.128)">
      <path id="Trazado_497" data-name="Trazado 497" class="cls-1" d="M5.895,34.558H19.7a1.2,1.2,0,0,0,1.2-1.2V21.421h-15Zm6.081-2.988a.524.524,0,0,1-.741.74l-1.059-1.06L9.117,32.31a.523.523,0,0,1-.74-.74l1.06-1.06-1.06-1.06a.524.524,0,0,1,.74-.741l1.059,1.06,1.059-1.06a.524.524,0,1,1,.741.74l-1.06,1.06Zm4.957.959h-.366a.523.523,0,1,1,0-1.047h.366a.523.523,0,1,1,0,1.047ZM15.075,24.5h3.348a.523.523,0,1,1,0,1.047H15.075a.523.523,0,0,1,0-1.047Zm2.382,4.514a.524.524,0,0,1-.524.524h-.366a.524.524,0,1,1,0-1.047h.366A.524.524,0,0,1,17.457,29.009Zm-2.382.977h3.348a.523.523,0,1,1,0,1.047H15.075a.523.523,0,0,1,0-1.047ZM8.5,24.5H9.652v-1.15a.523.523,0,1,1,1.047,0V24.5H11.85a.523.523,0,0,1,0,1.047H10.7v1.15a.523.523,0,1,1-1.047,0v-1.15H8.5a.523.523,0,1,1,0-1.047Z" transform="translate(-5.895 -17.558)"/>
      <rect id="Rectángulo_564" data-name="Rectángulo 564" class="cls-2" width="15" height="2.815" transform="translate(0)"/>
    </g>
  </g>
</svg>
