<svg xmlns="http://www.w3.org/2000/svg" width="15" height="16" viewBox="0 0 15 16">
  <defs>
    <style>
      .cls-1 {
        fill: #bfbfc5;
      }

      .cls-2 {
        fill: #a5a4bf;
      }
    </style>
  </defs>
  <g id="informes" transform="translate(-30 -48)">
    <g id="Grupo_331" data-name="Grupo 331" transform="translate(30 48)">
      <path id="Trazado_505" data-name="Trazado 505" class="cls-1" d="M403.4,358.368l1.175,1.361a2.271,2.271,0,0,0,.368-1.261,1.943,1.943,0,0,0-1.785-2.068,1.4,1.4,0,0,0-.219.015v2.049a2.82,2.82,0,0,1-.64,1.826,1.6,1.6,0,0,0,.856.254,1.648,1.648,0,0,0,1.089-.427h0l-1.175-1.361a.3.3,0,0,1,0-.381A.211.211,0,0,1,403.4,358.368Z" transform="translate(-389.945 -344.544)"/>
      <g id="Grupo_328" data-name="Grupo 328" transform="translate(8.94 12.432)">
        <g id="Grupo_327" data-name="Grupo 327">
          <path id="Trazado_506" data-name="Trazado 506" class="cls-2" d="M302.991,371.4h-.647v.434a.235.235,0,1,1-.465,0V371.4H299.4v1.48a2.224,2.224,0,0,0,.624,1.576,1.649,1.649,0,0,0,1.171.5,1.669,1.669,0,0,0,1.241-.577,2.243,2.243,0,0,0,.554-1.5Zm-.65,1.349a.277.277,0,0,1-.013.05l-.02.046a.326.326,0,0,1-.03.042.372.372,0,0,1-.036.035.244.244,0,0,1-.04.027.194.194,0,0,1-.043.015.282.282,0,0,1-.093,0,.148.148,0,0,1-.043-.015.244.244,0,0,1-.04-.027c-.013-.012-.023-.023-.036-.035a.4.4,0,0,1-.03-.042.139.139,0,0,1-.02-.046.279.279,0,0,1-.013-.05.275.275,0,0,1,0-.054.317.317,0,0,1,0-.054.28.28,0,0,1,.013-.05l.02-.046a.4.4,0,0,1,.03-.042.368.368,0,0,1,.036-.035.107.107,0,0,1,.04-.023.194.194,0,0,1,.043-.015.177.177,0,0,1,.09,0,.194.194,0,0,1,.043.015l.04.023c.013.012.023.023.036.035a.405.405,0,0,1,.03.042.14.14,0,0,1,.02.046.283.283,0,0,1,.013.05.275.275,0,0,1,0,.054A.1.1,0,0,1,302.34,372.749Z" transform="translate(-299.4 -371.4)"/>
        </g>
      </g>
      <g id="Grupo_329" data-name="Grupo 329" transform="translate(8.944 7.988)">
        <path id="Trazado_507" data-name="Trazado 507" class="cls-2" d="M299.5,257.88v1.83h3.591v-1.83a2.257,2.257,0,0,0-.528-1.472,1.674,1.674,0,0,0-1.271-.607,1.609,1.609,0,0,0-.916.292A2.16,2.16,0,0,0,299.5,257.88Z" transform="translate(-299.5 -255.8)"/>
      </g>
      <g id="Grupo_330" data-name="Grupo 330" transform="translate(2.671)">
        <path id="Trazado_508" data-name="Trazado 508" class="cls-2" d="M114.98,48.727a.682.682,0,0,0-.627-.727h-3.226a.682.682,0,0,0-.627.727v.4h4.483v-.4Z" transform="translate(-110.5 -48)"/>
      </g>
      <path id="Trazado_509" data-name="Trazado 509" class="cls-1" d="M38.479,103.548v-1.48a.606.606,0,0,0,0-.538V99.7a2.744,2.744,0,0,1,1.105-2.253,1.94,1.94,0,0,1,.239-.142V92.646A1.263,1.263,0,0,0,38.662,91.3h-7.5A1.263,1.263,0,0,0,30,92.646v11.637a1.265,1.265,0,0,0,1.162,1.346h7.5a1.037,1.037,0,0,0,.544-.158A2.829,2.829,0,0,1,38.479,103.548Zm-4.958-1.111a.3.3,0,0,1,0,.381.207.207,0,0,1-.329,0l-.567-.657-.567.657a.218.218,0,0,1-.163.081.213.213,0,0,1-.163-.081.3.3,0,0,1,0-.381l.567-.657-.574-.657a.3.3,0,0,1,0-.381.212.212,0,0,1,.329,0l.567.657.567-.657a.212.212,0,0,1,.329,0,.3.3,0,0,1,0,.381l-.564.657Zm.183-4.29-1.228,1.422a.213.213,0,0,1-.163.077.216.216,0,0,1-.163-.077l-.6-.7a.3.3,0,0,1,0-.381.212.212,0,0,1,.329,0l.441.511,1.065-1.234a.212.212,0,0,1,.329,0A.312.312,0,0,1,33.7,98.147Zm0-3.114-1.228,1.422a.218.218,0,0,1-.163.081.208.208,0,0,1-.163-.081l-.6-.7a.3.3,0,0,1,0-.381.212.212,0,0,1,.329,0l.441.511,1.065-1.234a.212.212,0,0,1,.329,0A.312.312,0,0,1,33.7,95.033Zm3.242,7.254H34.527a.272.272,0,0,1,0-.538h2.419a.251.251,0,0,1,.232.269A.256.256,0,0,1,36.946,102.287Zm0-3.114H34.527a.272.272,0,0,1,0-.538h2.419a.272.272,0,0,1,0,.538Zm0-3.114H34.527a.272.272,0,0,1,0-.538h2.419a.272.272,0,0,1,0,.538Zm1.158,6.147a.22.22,0,0,1-.163.081c-.017,0-.03,0-.046,0a.148.148,0,0,1-.043-.015l-.04-.023c-.013-.012-.023-.023-.037-.035a.4.4,0,0,1-.03-.042.139.139,0,0,1-.02-.046.278.278,0,0,1-.013-.05.438.438,0,0,1,0-.108.278.278,0,0,1,.013-.05l.02-.046a.329.329,0,0,1,.03-.042.369.369,0,0,1,.037-.035.107.107,0,0,1,.04-.023.194.194,0,0,1,.043-.015.219.219,0,0,1,.209.073.295.295,0,0,1,0,.381Zm0-3.11a.22.22,0,0,1-.163.081.19.19,0,0,1-.046,0,.149.149,0,0,1-.043-.015.242.242,0,0,1-.04-.027.3.3,0,0,1-.037-.035.4.4,0,0,1-.03-.042.139.139,0,0,1-.02-.046.278.278,0,0,1-.013-.05.273.273,0,0,1,0-.054.311.311,0,0,1,.066-.188.371.371,0,0,1,.037-.035.107.107,0,0,1,.04-.023.193.193,0,0,1,.043-.015.211.211,0,0,1,.209.073.294.294,0,0,1,.07.188A.3.3,0,0,1,38.1,99.1Zm0-3.114a.22.22,0,0,1-.163.081.19.19,0,0,1-.046,0,.148.148,0,0,1-.043-.015l-.04-.023c-.013-.012-.023-.023-.037-.035a.4.4,0,0,1-.03-.042.139.139,0,0,1-.02-.046.278.278,0,0,1-.013-.05.273.273,0,0,1,0-.054.293.293,0,0,1,0-.054.278.278,0,0,1,.013-.05l.02-.046a.329.329,0,0,1,.03-.042.37.37,0,0,1,.037-.035.107.107,0,0,1,.04-.023.194.194,0,0,1,.043-.015.211.211,0,0,1,.209.073.295.295,0,0,1,0,.381Z" transform="translate(-30 -89.635)"/>
    </g>
  </g>
</svg>
