<svg xmlns="http://www.w3.org/2000/svg" width="16" height="20.502" viewBox="0 0 16 20.502">
  <defs>
    <style>
      .cls-1 {
        fill: #a5a4bf;
      }

      .cls-2, .cls-5 {
        fill: #502d4b;
      }

      .cls-3 {
        fill: #bfbfc5;
      }

      .cls-4 {
        fill: #43425d;
      }

      .cls-5 {
        opacity: 0.2;
      }
    </style>
  </defs>
  <g id="medicos" transform="translate(-16.242 -2.7)">
    <g id="Grupo_332" data-name="Grupo 332" transform="translate(16.461 14.348)">
      <path id="Trazado_510" data-name="Trazado 510" class="cls-1" d="M30.363,74.442,25.325,72.3h0L20.3,74.442c-1.339.569-2.879,1.556-2.745,3.515v.05a11.731,11.731,0,0,0,15.548,0v-.05C33.241,76,31.7,75.011,30.363,74.442Z" transform="translate(-17.551 -72.3)"/>
    </g>
    <g id="Grupo_333" data-name="Grupo 333" transform="translate(16.242 14.131)">
      <path id="Trazado_511" data-name="Trazado 511" class="cls-2" d="M24.235,80.071a12.007,12.007,0,0,1-7.916-3,.163.163,0,0,1-.067-.151v-.05c-.117-1.623.82-2.845,2.879-3.715l5.021-2.142A.248.248,0,0,1,24.268,71a.1.1,0,0,1,.067.017l5.021,2.142c2.042.87,2.979,2.092,2.879,3.715v.05a.249.249,0,0,1-.067.151A12,12,0,0,1,24.235,80.071ZM16.67,76.824a11.53,11.53,0,0,0,15.129,0c.084-1.439-.753-2.477-2.628-3.28l-4.937-2.109-4.954,2.109C17.406,74.347,16.569,75.385,16.67,76.824Z" transform="translate(-16.242 -71)"/>
    </g>
    <g id="Grupo_334" data-name="Grupo 334" transform="translate(21.741 13.344)">
      <path id="Trazado_512" data-name="Trazado 512" class="cls-3" d="M49.853,66.35,49.1,68.392l1.423,4.2a1.132,1.132,0,0,0,2.142,0l1.423-4.2-.77-2.092Z" transform="translate(-49.1 -66.3)"/>
    </g>
    <g id="Grupo_335" data-name="Grupo 335" transform="translate(21.528 13.16)">
      <path id="Trazado_513" data-name="Trazado 513" class="cls-2" d="M50.532,72.664a1.31,1.31,0,0,1-1.272-.92l-1.423-4.2a.183.183,0,0,1,0-.134l.753-2.042a.2.2,0,0,1,.2-.134l3.464-.033a.217.217,0,0,1,.2.134l.77,2.092a.183.183,0,0,1,0,.134l-1.423,4.2A1.316,1.316,0,0,1,50.532,72.664Zm-2.276-5.171,1.389,4.134a.913.913,0,0,0,1.741,0l1.389-4.134-.686-1.874-3.18.033Z" transform="translate(-47.825 -65.2)"/>
    </g>
    <g id="Grupo_336" data-name="Grupo 336" transform="translate(23.13 15.754)">
      <path id="Trazado_514" data-name="Trazado 514" class="cls-3" d="M59.191,80.7H57.835l.452.669-.887,3.4.033.1a1.132,1.132,0,0,0,2.142,0l.033-.1-.887-3.4Z" transform="translate(-57.4 -80.7)"/>
    </g>
    <g id="Grupo_337" data-name="Grupo 337" transform="translate(22.917 15.52)">
      <path id="Trazado_515" data-name="Trazado 515" class="cls-4" d="M57.443,84.572h0a1.332,1.332,0,0,1-1.272-.9l-.033-.1a.143.143,0,0,1,0-.117l.854-3.213-.4-.6a.212.212,0,0,1,.167-.335h1.356a.212.212,0,0,1,.167.335l-.4.6.854,3.213a.143.143,0,0,1,0,.117l-.033.1A1.3,1.3,0,0,1,57.443,84.572ZM56.556,83.5l.017.033a.914.914,0,0,0,.87.619.9.9,0,0,0,.87-.619l.017-.033-.87-3.247a.206.206,0,0,1,.033-.167l.234-.351h-.569l.234.351a.206.206,0,0,1,.033.167Z" transform="translate(-56.125 -79.3)"/>
    </g>
    <g id="Grupo_338" data-name="Grupo 338" transform="translate(20.687 14.8)">
      <path id="Trazado_516" data-name="Trazado 516" class="cls-1" d="M44,75l-1.2,1.054.218,2.142.837-.435-.485.87,2.561,2.761.418-1.188Z" transform="translate(-42.8 -75)"/>
    </g>
    <g id="Grupo_339" data-name="Grupo 339" transform="translate(20.452 14.56)">
      <path id="Trazado_517" data-name="Trazado 517" class="cls-4" d="M44.764,80.4a.182.182,0,0,1-.151-.067l-2.561-2.761a.229.229,0,0,1-.033-.251l.134-.251-.218.117a.213.213,0,0,1-.2,0,.242.242,0,0,1-.117-.167L41.4,74.857a.252.252,0,0,1,.067-.184l1.2-1.054a.189.189,0,0,1,.184-.05.213.213,0,0,1,.151.117l2.343,5.2a.232.232,0,0,1,0,.151l-.418,1.172a.2.2,0,0,1-.151.134C44.781,80.4,44.764,80.4,44.764,80.4Zm-2.293-3,2.209,2.393.285-.77-2.192-4.87-.9.787.167,1.741.552-.3a.208.208,0,0,1,.285.285Z" transform="translate(-41.4 -73.562)"/>
    </g>
    <g id="Grupo_340" data-name="Grupo 340" transform="translate(19.832 2.918)">
      <path id="Trazado_518" data-name="Trazado 518" class="cls-1" d="M44.5,4.77A4.862,4.862,0,0,0,41.743,4a4.017,4.017,0,0,0-2.912,1.238,4.215,4.215,0,0,0-1.054,3.749l.067.368c.2,0,.636-.1,1.372-.234a10.028,10.028,0,0,0,4.435-1.975l.452-.351,1.172,1.841c.285.452.536.72,1.054.72l.1-.469a4.288,4.288,0,0,0-.1-2.109C45.944,5.69,45.224,4.77,44.5,4.77Z" transform="translate(-37.692 -4)"/>
    </g>
    <g id="Grupo_341" data-name="Grupo 341" transform="translate(19.611 2.7)">
      <path id="Trazado_519" data-name="Trazado 519" class="cls-2" d="M45.234,8.491A1.408,1.408,0,0,1,44,7.687l-1.038-1.64-.285.2a10.42,10.42,0,0,1-4.519,2.008c-.234.05-.435.084-.619.117a6.79,6.79,0,0,1-.787.117.2.2,0,0,1-.2-.167l-.084-.385a4.429,4.429,0,0,1,1.1-3.933A4.269,4.269,0,0,1,40.631,2.7a4.2,4.2,0,0,1,2.561.653.952.952,0,0,0,.2.117c.887,0,1.657,1.088,2.008,2.176a4.277,4.277,0,0,1,.117,2.209l-.1.469A.172.172,0,0,1,45.234,8.491ZM43.008,5.512h.033c.05.017.117.05.134.1l1.172,1.841c.234.351.4.552.72.6l.05-.285a3.987,3.987,0,0,0-.1-1.992c-.368-1.088-1.038-1.891-1.607-1.891a.876.876,0,0,1-.435-.184,3.738,3.738,0,0,0-2.326-.586A3.851,3.851,0,0,0,37.886,4.29a3.961,3.961,0,0,0-1,3.565l.033.184c.134-.017.318-.05.536-.1.184-.033.385-.067.619-.117a9.632,9.632,0,0,0,4.351-1.908l.452-.351A.19.19,0,0,1,43.008,5.512Z" transform="translate(-36.376 -2.7)"/>
    </g>
    <g id="Grupo_342" data-name="Grupo 342" transform="translate(19.712 5.712)">
      <path id="Trazado_520" data-name="Trazado 520" class="cls-3" d="M45.949,23.361a2.22,2.22,0,0,0-.2-.2l-.017.1c-.519,0-.77-.268-1.054-.72L43.505,20.7l-.452.351a10.241,10.241,0,0,1-4.435,1.975c-.736.134-1.172.234-1.372.234l-.017-.084a.941.941,0,0,0-.184.184c-.151.167-.033.636.084,1.021.318,1.021.536,1.121.82,1.071a.016.016,0,0,0,.017-.017c0,.017.017.033.017.05l.084.268a6.968,6.968,0,0,0,2.192,3.833l.017.017a1.166,1.166,0,0,0,.77.3h.92a1.117,1.117,0,0,0,.77-.3l.017-.017a6.865,6.865,0,0,0,2.192-3.816l.084-.268c0-.017.017-.033.017-.05a.016.016,0,0,1,.017.017c.285.05.5-.05.82-1.071C46,24,46.1,23.545,45.949,23.361Z" transform="translate(-36.974 -20.7)"/>
    </g>
    <g id="Grupo_343" data-name="Grupo 343" transform="translate(19.487 5.522)">
      <path id="Trazado_521" data-name="Trazado 521" class="cls-2" d="M40.85,29.174h-.937a1.307,1.307,0,0,1-.9-.351l-.017-.017a7.2,7.2,0,0,1-2.259-3.933l-.05-.151c-.385-.017-.619-.351-.887-1.238-.2-.653-.218-1.021-.033-1.222l.218-.218a.214.214,0,0,1,.2-.033.167.167,0,0,1,.084.067c.134-.017.335-.05.569-.1.184-.033.385-.067.619-.117A9.632,9.632,0,0,0,41.8,19.952l.452-.351a.2.2,0,0,1,.167-.033c.05.017.117.05.134.1l1.172,1.841c.234.368.418.569.736.6a.167.167,0,0,1,.084-.067.215.215,0,0,1,.2.017A1.072,1.072,0,0,1,45,22.3c.167.2.167.569-.033,1.222-.268.887-.5,1.222-.887,1.238l-.05.151a7.146,7.146,0,0,1-2.259,3.933h-.017A1.372,1.372,0,0,1,40.85,29.174ZM36.833,24.3a.234.234,0,0,1,.2.151l.1.318A6.809,6.809,0,0,0,39.26,28.5l.017.017a.016.016,0,0,1,.017.017.934.934,0,0,0,.619.251h.937a.859.859,0,0,0,.619-.251.016.016,0,0,0,.017-.017L41.5,28.5a6.912,6.912,0,0,0,2.125-3.732l.1-.3a.2.2,0,0,1,.251-.151h.067c.067,0,.234,0,.519-.937.2-.686.134-.8.117-.82,0-.017-.017-.017-.017-.033h-.05a1.408,1.408,0,0,1-1.238-.8l-1.038-1.64-.285.2A10.42,10.42,0,0,1,37.536,22.3c-.234.05-.435.084-.619.117a6.791,6.791,0,0,1-.787.117H36.1l-.017.017c-.017.017-.084.134.117.82.285.937.452.937.519.937h.117Z" transform="translate(-35.634 -19.561)"/>
    </g>
    <g id="Grupo_344" data-name="Grupo 344" transform="translate(23.816 16.24)">
      <path id="Trazado_522" data-name="Trazado 522" class="cls-2" d="M62.153,84H61.7a.2.2,0,0,1-.2-.2.216.216,0,0,1,.2-.2h.452a.2.2,0,0,1,.2.2A.216.216,0,0,1,62.153,84Z" transform="translate(-61.5 -83.6)"/>
    </g>
    <g id="Grupo_345" data-name="Grupo 345" transform="translate(19.297 20.474)">
      <path id="Trazado_523" data-name="Trazado 523" class="cls-2" d="M34.768,110.657a.193.193,0,0,1-.2-.2l-.067-1.339a.209.209,0,0,1,.418-.017l.067,1.339a.222.222,0,0,1-.218.218Z" transform="translate(-34.5 -108.9)"/>
    </g>
    <g id="Grupo_346" data-name="Grupo 346" transform="translate(28.701 20.474)">
      <path id="Trazado_524" data-name="Trazado 524" class="cls-2" d="M90.892,110.607h0a.2.2,0,0,1-.2-.218l.067-1.289a.209.209,0,0,1,.418.017l-.067,1.289A.218.218,0,0,1,90.892,110.607Z" transform="translate(-90.689 -108.9)"/>
    </g>
    <g id="Grupo_347" data-name="Grupo 347" transform="translate(23.297 14.8)">
      <path id="Trazado_525" data-name="Trazado 525" class="cls-1" d="M61.6,75l1.021,1.038.05,2.159-.837-.435.485.87L58.4,82.213l.937-2.008Z" transform="translate(-58.4 -75)"/>
    </g>
    <path id="Trazado_526" data-name="Trazado 526" class="cls-5" d="M76.365,72.277l-1.774-.753-1-.937L73.3,69.7l-.5.519.485,1.054,1.356,1.172c1.339.569,2.912,1.389,2.778,3.347L77.4,76.98l1.69-1.138v-.05C79.243,73.834,77.7,72.846,76.365,72.277Z" transform="translate(-47.093 -55.787)"/>
    <g id="Grupo_348" data-name="Grupo 348" transform="translate(23.097 14.612)">
      <path id="Trazado_527" data-name="Trazado 527" class="cls-4" d="M57.4,81.493a.242.242,0,0,1-.117-.033.213.213,0,0,1-.067-.251l.937-2.008L60.416,74a.179.179,0,0,1,.151-.117.2.2,0,0,1,.184.067l1.021,1.038a.212.212,0,0,1,.067.151l.033,2.159a.21.21,0,0,1-.1.184.213.213,0,0,1-.2,0l-.218-.134.134.251a.2.2,0,0,1-.033.251l-3.9,3.6A.27.27,0,0,1,57.4,81.493Zm3.264-7.063-2.142,4.92-.485,1.054,3.012-2.761-.4-.72a.208.208,0,0,1,.285-.285l.519.268-.033-1.724Z" transform="translate(-57.203 -73.874)"/>
    </g>
    <g id="Grupo_349" data-name="Grupo 349" transform="translate(23.097 21.829)">
      <path id="Trazado_528" data-name="Trazado 528" class="cls-2" d="M57.4,118.255a.2.2,0,0,1-.2-.2V117.2a.2.2,0,0,1,.2-.2.216.216,0,0,1,.2.2v.854A.193.193,0,0,1,57.4,118.255Z" transform="translate(-57.2 -117)"/>
    </g>
    <path id="Trazado_529" data-name="Trazado 529" class="cls-5" d="M72.8,19.511a7.477,7.477,0,0,0,1.975-3.648l.084-.268c0-.017.017-.033.017-.05a.016.016,0,0,1,.017.017c.285.05.5-.05.82-1.071.117-.385.234-.854.084-1.021a2.219,2.219,0,0,0-.2-.2l.067-.368a4.288,4.288,0,0,0-.1-2.109A2.931,2.931,0,0,0,73.988,8.8C75.11,12.047,74.44,16.365,72.8,19.511Z" transform="translate(-47.093 -5.079)"/>
  </g>
</svg>
