<svg xmlns="http://www.w3.org/2000/svg" width="20" height="14.271" viewBox="0 0 20 14.271">
  <defs>
    <style>
      .cls-1 {
        fill: #bfbfc5;
      }

      .cls-2 {
        fill: #a5a4bf;
      }
    </style>
  </defs>
  <g id="proveedor" transform="translate(-27.4 -92.629)">
    <g id="Grupo_352" data-name="Grupo 352" transform="translate(27.4 90.9)">
      <path id="Trazado_530" data-name="Trazado 530" class="cls-1" d="M29.368,336H27.815a.439.439,0,0,0-.415.46v1.192a.439.439,0,0,0,.415.46h.9c0-.068-.009-.131-.009-.2A3.057,3.057,0,0,1,29.368,336Z" transform="translate(-27.4 -324.127)"/>
      <path id="Trazado_531" data-name="Trazado 531" class="cls-1" d="M169.2,336h-8a3.067,3.067,0,0,1,.66,1.918c0,.068,0,.131,0,.2h6.687c0-.063,0-.131,0-.2A3.032,3.032,0,0,1,169.2,336Z" transform="translate(-155.348 -324.127)"/>
      <path id="Trazado_532" data-name="Trazado 532" class="cls-1" d="M432.9,335.9a3.067,3.067,0,0,1,.66,1.918c0,.063,0,.131-.009.2H434.8a.388.388,0,0,0,.367-.407v-1.308a.388.388,0,0,0-.367-.407h-1.9Z" transform="translate(-415.165 -324.032)"/>
      <path id="Trazado_533" data-name="Trazado 533" class="cls-1" d="M74.27,330.386a1.822,1.822,0,0,0-1.959,0A2.249,2.249,0,0,0,71.3,332.3c0,.068,0,.131.009.2a1.984,1.984,0,1,0,3.967,0c0-.063.009-.131.009-.2A2.262,2.262,0,0,0,74.27,330.386Zm-.223,2.117a.763.763,0,0,1-1.513,0,.983.983,0,0,1-.022-.2.783.783,0,1,1,1.557,0A1.445,1.445,0,0,1,74.047,332.5Z" transform="translate(-69.38 -318.513)"/>
      <path id="Trazado_534" data-name="Trazado 534" class="cls-1" d="M345.97,330.386a1.822,1.822,0,0,0-1.959,0A2.249,2.249,0,0,0,343,332.3c0,.068,0,.131.009.2a1.986,1.986,0,1,0,3.971,0c0-.063.009-.131.009-.2A2.276,2.276,0,0,0,345.97,330.386Zm-.223,2.117a.763.763,0,0,1-1.513,0,.983.983,0,0,1-.022-.2.783.783,0,1,1,1.557,0A.983.983,0,0,1,345.747,332.5Z" transform="translate(-329.197 -318.513)"/>
      <path id="Trazado_536" data-name="Trazado 536" class="cls-1" d="M328.739,168.951h-1.351l-.271-1.933a.9.9,0,0,0-.866-.819H323.6v7.547h6.285v-.727h-.022a.5.5,0,0,1,0-1h.022v-1.8A1.212,1.212,0,0,0,328.739,168.951Zm-4.29,0v-1.444h1.811l.206,1.444Z" transform="translate(-310.646 -162.552)"/>
      <g id="Grupo_351" data-name="Grupo 351" transform="translate(0.66 1.729)">
        <g id="Grupo_350" data-name="Grupo 350">
          <path id="Trazado_537" data-name="Trazado 537" class="cls-2" d="M52.349,134.229h1.832V126.6H42.5v9.465H54.182v-1.153H52.349a.322.322,0,0,1-.306-.339A.326.326,0,0,1,52.349,134.229Zm-2.83.412H47.158V132.98h-1.5v-2.616h1.5V128.7h2.362v1.662h1.5v2.616h-1.5Zm2,0a.259.259,0,0,1-.017.063l-.026.058c-.013.019-.026.034-.039.053a.479.479,0,0,1-.048.044.142.142,0,0,1-.052.029.244.244,0,0,1-.118.024c-.022,0-.039,0-.061,0a.2.2,0,0,1-.057-.019l-.052-.029c-.017-.015-.031-.029-.048-.044a.507.507,0,0,1-.039-.053.171.171,0,0,1-.026-.058.338.338,0,0,1-.017-.063.354.354,0,0,1,0-.068.344.344,0,0,1,.092-.242.478.478,0,0,1,.048-.044.318.318,0,0,1,.052-.034.262.262,0,0,1,.057-.019.243.243,0,0,1,.118,0,.263.263,0,0,1,.057.019.319.319,0,0,1,.052.034.391.391,0,0,1,.048.044.364.364,0,0,1,.092.242C51.527,134.593,51.527,134.617,51.523,134.636Z" transform="translate(-42.5 -126.6)"/>
        </g>
      </g>
    </g>
  </g>
</svg>
