<svg xmlns="http://www.w3.org/2000/svg" width="82" height="90" viewBox="0 0 82 90">
  <defs>
    <style>
      .cls-1 {
        fill: #a5a4bf;
      }

      .cls-1, .cls-2 {
        stroke: #502d4b;
        stroke-width: 2px;
      }

      .cls-2 {
        fill: #bfbfc5;
      }
    </style>
  </defs>
  <g id="Contabilidad" transform="translate(-4.895 -0.128)">
    <g id="Grupo_387" data-name="Grupo 387" transform="translate(5.895 1.128)">
      <path id="Trazado_585" data-name="Trazado 585" class="cls-1" d="M5.895,89.128H79.514a6.285,6.285,0,0,0,6.38-6.168V21.421h-80Zm32.433-15.4a2.64,2.64,0,0,1,0,3.817,2.868,2.868,0,0,1-3.951,0l-5.648-5.464-5.65,5.462a2.855,2.855,0,0,1-3.947,0,2.631,2.631,0,0,1,0-3.815l5.652-5.462L19.131,62.8a2.633,2.633,0,0,1,0-3.817,2.861,2.861,0,0,1,3.948,0l5.65,5.464,5.648-5.462a2.866,2.866,0,0,1,3.952,0,2.637,2.637,0,0,1,0,3.815l-5.652,5.464ZM64.763,78.67H62.812a2.7,2.7,0,1,1,0-5.4h1.951a2.7,2.7,0,1,1,0,5.4ZM54.855,37.264H72.709a2.7,2.7,0,1,1,0,5.4H54.855a2.7,2.7,0,1,1,0-5.4Zm12.7,23.265a2.75,2.75,0,0,1-2.8,2.7H62.812a2.7,2.7,0,1,1,0-5.4h1.951A2.75,2.75,0,0,1,67.559,60.529Zm-12.7,5.034H72.709a2.7,2.7,0,1,1,0,5.4H54.855a2.7,2.7,0,1,1,0-5.4Zm-35.05-28.3h6.128V31.34a2.793,2.793,0,0,1,5.583,0v5.924h6.139a2.7,2.7,0,1,1,0,5.4H31.517v5.928a2.793,2.793,0,0,1-5.583,0V42.66H19.805a2.7,2.7,0,1,1,0-5.4Z" transform="translate(-5.895 -1.128)"/>
      <path id="Trazado_586" data-name="Trazado 586" class="cls-2" d="M0,0H80V14.791H0Z"/>
    </g>
  </g>
</svg>
