<svg xmlns="http://www.w3.org/2000/svg" width="98" height="90" viewBox="0 0 98 90">
  <defs>
    <style>
      .cls-1 {
        fill: #bfbfc5;
      }

      .cls-1, .cls-2 {
        stroke: #502d4b;
        stroke-width: 2px;
      }

      .cls-2 {
        fill: #a5a4bf;
      }
    </style>
  </defs>
  <g id="informes" transform="translate(-29 -47)">
    <g id="Grupo_386" data-name="Grupo 386" transform="translate(30 48)">
      <path id="Trazado_580" data-name="Trazado 580" class="cls-1" d="M409.351,367.226l7.519,7.485a11.26,11.26,0,0,0,2.358-6.935A11.4,11.4,0,0,0,407.8,356.4a10.4,10.4,0,0,0-1.4.085v11.27a14.225,14.225,0,0,1-4.1,10.043,11.488,11.488,0,0,0,12.446-.951h0l-7.519-7.485a1.506,1.506,0,0,1,2.124-2.135Z" transform="translate(-323.227 -291.193)"/>
      <g id="Grupo_383" data-name="Grupo 383" transform="translate(57.218 68.379)">
        <g id="Grupo_382" data-name="Grupo 382">
          <path id="Trazado_581" data-name="Trazado 581" class="cls-2" d="M322.381,371.4h-4.142v2.389a1.487,1.487,0,0,1-2.973,0V371.4H299.4v8.14a11.49,11.49,0,0,0,22.981,0Zm-4.163,7.421a1.366,1.366,0,0,1-.085.275l-.127.254a1.846,1.846,0,0,1-.191.233,2.255,2.255,0,0,1-.234.19,1.586,1.586,0,0,1-.255.148,1.376,1.376,0,0,1-.276.085,2.1,2.1,0,0,1-.595,0,1.054,1.054,0,0,1-.276-.085,1.588,1.588,0,0,1-.255-.148c-.085-.063-.149-.127-.234-.19a2.251,2.251,0,0,1-.191-.233.714.714,0,0,1-.127-.254,1.364,1.364,0,0,1-.085-.275,1.3,1.3,0,0,1-.021-.3,1.493,1.493,0,0,1,.021-.3,1.364,1.364,0,0,1,.085-.275l.127-.254a1.514,1.514,0,0,1,.425-.423.719.719,0,0,1,.255-.127,1.38,1.38,0,0,1,.276-.085,1.312,1.312,0,0,1,.573,0,1.38,1.38,0,0,1,.276.085l.255.127c.085.063.149.127.234.19a2.249,2.249,0,0,1,.191.233.713.713,0,0,1,.127.254,1.364,1.364,0,0,1,.085.275,1.3,1.3,0,0,1,.021.3A.47.47,0,0,1,318.218,378.821Z" transform="translate(-299.4 -371.4)"/>
        </g>
      </g>
      <g id="Grupo_384" data-name="Grupo 384" transform="translate(57.239 43.937)">
        <path id="Trazado_582" data-name="Trazado 582" class="cls-2" d="M299.5,267.239V277.3h22.981V267.239a11.49,11.49,0,0,0-22.981,0Z" transform="translate(-299.5 -255.8)"/>
      </g>
      <g id="Grupo_385" data-name="Grupo 385" transform="translate(17.097)">
        <path id="Trazado_583" data-name="Trazado 583" class="cls-2" d="M139.173,52a4,4,0,0,0-4.014-4H114.514a4,4,0,0,0-4.014,4v2.2h28.694V52Z" transform="translate(-110.5 -48)"/>
      </g>
      <path id="Trazado_584" data-name="Trazado 584" class="cls-1" d="M84.265,158.664v-8.14a2.917,2.917,0,0,1,.4-1.48,2.917,2.917,0,0,1-.4-1.48V137.5a14.487,14.487,0,0,1,7.073-12.39,12.989,12.989,0,0,1,1.529-.782V98.7a7.412,7.412,0,0,0-7.434-7.4h-48A7.412,7.412,0,0,0,30,98.7v64a7.425,7.425,0,0,0,7.434,7.4H85.412a7.452,7.452,0,0,0,3.483-.867A14.386,14.386,0,0,1,84.265,158.664Zm-31.731-6.111a1.484,1.484,0,1,1-2.1,2.093L46.8,151.031l-3.632,3.616a1.489,1.489,0,0,1-1.041.444,1.453,1.453,0,0,1-1.041-.444,1.488,1.488,0,0,1,0-2.093l3.632-3.616-3.674-3.616a1.489,1.489,0,0,1,0-2.093,1.5,1.5,0,0,1,2.1,0l3.632,3.616,3.632-3.616a1.5,1.5,0,0,1,2.1,0,1.489,1.489,0,0,1,0,2.093L48.9,148.938Zm1.168-23.6-7.858,7.823a1.465,1.465,0,0,1-1.041.423,1.483,1.483,0,0,1-1.041-.423L39.9,132.932a1.488,1.488,0,0,1,0-2.093,1.5,1.5,0,0,1,2.1,0l2.825,2.812,6.818-6.787a1.5,1.5,0,0,1,2.1,0A1.53,1.53,0,0,1,53.7,128.957Zm0-17.126-7.858,7.823a1.489,1.489,0,0,1-1.041.444,1.418,1.418,0,0,1-1.041-.444L39.9,115.806a1.489,1.489,0,0,1,0-2.093,1.5,1.5,0,0,1,2.1,0l2.825,2.812,6.818-6.787a1.5,1.5,0,0,1,2.1,0A1.53,1.53,0,0,1,53.7,111.831Zm20.75,39.9H58.97a1.48,1.48,0,1,1,0-2.96H74.453a1.474,1.474,0,0,1,1.487,1.48A1.5,1.5,0,0,1,74.453,151.729Zm0-17.126H58.97a1.48,1.48,0,1,1,0-2.96H74.453a1.48,1.48,0,1,1,0,2.96Zm0-17.126H58.97a1.48,1.48,0,1,1,0-2.96H74.453a1.48,1.48,0,1,1,0,2.96Zm7.412,33.809a1.5,1.5,0,0,1-1.041.444c-.106,0-.191-.021-.3-.021a1.055,1.055,0,0,1-.276-.085L80,151.5c-.085-.063-.149-.127-.234-.19a2.25,2.25,0,0,1-.191-.233.713.713,0,0,1-.127-.254,1.363,1.363,0,0,1-.085-.275,2.073,2.073,0,0,1,0-.592,1.363,1.363,0,0,1,.085-.275l.127-.254a1.843,1.843,0,0,1,.191-.233A2.255,2.255,0,0,1,80,149a.719.719,0,0,1,.255-.127,1.377,1.377,0,0,1,.276-.085,1.537,1.537,0,0,1,1.338.4,1.451,1.451,0,0,1,0,2.093Zm0-17.105a1.5,1.5,0,0,1-1.041.444,1.409,1.409,0,0,1-.3-.021,1.055,1.055,0,0,1-.276-.085A1.585,1.585,0,0,1,80,134.37a1.847,1.847,0,0,1-.234-.19,2.248,2.248,0,0,1-.191-.233.713.713,0,0,1-.127-.254,1.364,1.364,0,0,1-.085-.275,1.294,1.294,0,0,1-.021-.3,1.566,1.566,0,0,1,.425-1.036A2.255,2.255,0,0,1,80,131.9a.719.719,0,0,1,.255-.127,1.379,1.379,0,0,1,.276-.085,1.5,1.5,0,0,1,1.784,1.438A1.541,1.541,0,0,1,81.865,134.179Zm0-17.126a1.5,1.5,0,0,1-1.041.444,1.408,1.408,0,0,1-.3-.021,1.055,1.055,0,0,1-.276-.085L80,117.264c-.085-.063-.149-.127-.234-.19a2.247,2.247,0,0,1-.191-.233.713.713,0,0,1-.127-.254,1.363,1.363,0,0,1-.085-.275,1.3,1.3,0,0,1-.021-.3,1.39,1.39,0,0,1,.021-.3,1.363,1.363,0,0,1,.085-.275l.127-.254a1.843,1.843,0,0,1,.191-.233,2.257,2.257,0,0,1,.234-.19.719.719,0,0,1,.255-.127,1.379,1.379,0,0,1,.276-.085,1.478,1.478,0,0,1,1.338.4,1.451,1.451,0,0,1,0,2.093Z" transform="translate(-30 -82.145)"/>
    </g>
  </g>
</svg>
