<svg xmlns="http://www.w3.org/2000/svg" width="80" height="88" viewBox="0 0 80 88">
  <defs>
    <style>
      .cls-1 {
        fill: #a5a4bf;
      }

      .cls-2, .cls-4 {
        fill: #502d4b;
      }

      .cls-3 {
        fill: #bfbfc5;
      }

      .cls-4 {
        opacity: 0.2;
      }
    </style>
  </defs>
  <g id="icono_medicos" data-name="icono medicos" transform="translate(-16.242 -2.7)">
    <g id="Grupo_361" data-name="Grupo 361" transform="translate(17.338 52.698)">
      <path id="Trazado_552" data-name="Trazado 552" class="cls-1" d="M81.608,81.5,56.42,72.3h0l-25.1,9.2c-6.694,2.442-14.393,6.681-13.724,15.086V96.8A64.246,64.246,0,0,0,56.42,109.44,64.684,64.684,0,0,0,95.331,96.8v-.216C96,88.176,88.3,83.938,81.608,81.5Z" transform="translate(-17.551 -72.3)"/>
    </g>
    <g id="Grupo_362" data-name="Grupo 362" transform="translate(16.242 51.764)">
      <path id="Trazado_553" data-name="Trazado 553" class="cls-2" d="M56.206,109.936A66.038,66.038,0,0,1,16.625,97.077a.665.665,0,0,1-.335-.647v-.216C15.7,89.247,20.391,84,30.684,80.267l25.1-9.2A1.427,1.427,0,0,1,56.373,71a.569.569,0,0,1,.335.072l25.1,9.2c10.209,3.736,14.9,8.98,14.393,15.948v.216a1.007,1.007,0,0,1-.335.647A65.994,65.994,0,0,1,56.206,109.936ZM18.382,96a63.616,63.616,0,0,0,37.824,12.14A63.431,63.431,0,0,0,94.03,96c.418-6.178-3.766-10.632-13.138-14.08L56.206,72.868,31.437,81.919C22.064,85.367,17.88,89.821,18.382,96Z" transform="translate(-16.242 -71)"/>
    </g>
    <g id="Grupo_363" data-name="Grupo 363" transform="translate(43.738 48.388)">
      <path id="Trazado_554" data-name="Trazado 554" class="cls-3" d="M52.866,66.516,49.1,75.28l7.113,18.031c1.757,4.382,9.037,4.382,10.711,0L74.037,75.28,70.187,66.3Z" transform="translate(-49.1 -66.3)"/>
    </g>
    <g id="Grupo_364" data-name="Grupo 364" transform="translate(42.671 47.598)">
      <path id="Trazado_555" data-name="Trazado 555" class="cls-2" d="M61.36,97.239A6.54,6.54,0,0,1,55,93.288L47.888,75.257a.684.684,0,0,1,0-.575l3.766-8.764a1.019,1.019,0,0,1,1-.575L69.979,65.2a1.1,1.1,0,0,1,1,.575l3.849,8.98a.684.684,0,0,1,0,.575L67.72,93.36A6.59,6.59,0,0,1,61.36,97.239ZM49.98,75.042l6.945,17.744a4.833,4.833,0,0,0,8.7,0l6.945-17.744L69.143,67l-15.9.144Z" transform="translate(-47.825 -65.2)"/>
    </g>
    <g id="Grupo_365" data-name="Grupo 365" transform="translate(50.683 58.733)">
      <path id="Trazado_556" data-name="Trazado 556" class="cls-3" d="M66.354,80.7H59.576l2.259,2.873L57.4,98.156l.167.431c1.757,4.382,8.954,4.382,10.711,0l.167-.431L64.011,83.573Z" transform="translate(-57.4 -80.7)"/>
    </g>
    <g id="Grupo_366" data-name="Grupo 366" transform="translate(49.616 57.727)">
      <path id="Trazado_557" data-name="Trazado 557" class="cls-2" d="M62.715,101.929h0a6.672,6.672,0,0,1-6.36-3.879l-.167-.431a.535.535,0,0,1,0-.5l4.268-13.793-2.008-2.586a.781.781,0,0,1-.084-.934,1.051,1.051,0,0,1,.92-.5h6.778a1.051,1.051,0,0,1,.92.5.781.781,0,0,1-.084.934l-2.008,2.586,4.268,13.793a.535.535,0,0,1,0,.5l-.167.431A6.471,6.471,0,0,1,62.715,101.929Zm-4.435-4.6.084.144a4.606,4.606,0,0,0,4.351,2.658,4.529,4.529,0,0,0,4.351-2.658l.084-.144L62.8,83.395a.785.785,0,0,1,.167-.718l1.172-1.509H61.292l1.172,1.509a.785.785,0,0,1,.167.718Z" transform="translate(-56.125 -79.3)"/>
    </g>
    <g id="Grupo_367" data-name="Grupo 367" transform="translate(38.466 54.638)">
      <path id="Trazado_558" data-name="Trazado 558" class="cls-1" d="M48.825,75,42.8,79.526l1.088,9.2,4.184-1.868-2.427,3.736,12.8,11.853,2.092-5.1Z" transform="translate(-42.8 -75)"/>
    </g>
    <g id="Grupo_368" data-name="Grupo 368" transform="translate(37.294 53.605)">
      <path id="Trazado_559" data-name="Trazado 559" class="cls-2" d="M58.22,102.9a.98.98,0,0,1-.753-.287l-12.8-11.853a.877.877,0,0,1-.167-1.078l.669-1.078-1.088.5a1.224,1.224,0,0,1-1,0,1.056,1.056,0,0,1-.586-.718L41.4,79.121a1,1,0,0,1,.335-.79L47.76,73.8a1.163,1.163,0,0,1,1.674.287L61.149,96.434a.864.864,0,0,1,0,.647l-2.092,5.029a.983.983,0,0,1-.753.575C58.3,102.9,58.22,102.9,58.22,102.9ZM46.756,90.04,57.8,100.313l1.423-3.3L48.262,76.1,43.743,79.48l.837,7.471,2.761-1.293A1.14,1.14,0,0,1,48.6,85.8a.783.783,0,0,1,.167,1.078Z" transform="translate(-41.4 -73.562)"/>
    </g>
    <g id="Grupo_369" data-name="Grupo 369" transform="translate(34.191 3.634)">
      <path id="Trazado_560" data-name="Trazado 560" class="cls-1" d="M71.757,7.3C70.167,7.3,68.242,4,57.949,4a21.8,21.8,0,0,0-14.56,5.316,16.4,16.4,0,0,0-5.272,16.091l.335,1.58c1,0,3.18-.431,6.862-1.006a54.476,54.476,0,0,0,22.175-8.477L69.748,16l5.858,7.9c1.423,1.94,2.678,3.089,5.272,3.089l.5-2.011a15.907,15.907,0,0,0-.5-9.051C78.953,11.256,75.355,7.3,71.757,7.3Z" transform="translate(-37.692 -4)"/>
    </g>
    <g id="Grupo_370" data-name="Grupo 370" transform="translate(33.09 2.7)">
      <path id="Trazado_561" data-name="Trazado 561" class="cls-2" d="M80.663,27.556c-3.347,0-4.853-1.724-6.192-3.448l-5.188-7.04-1.423.862a56.613,56.613,0,0,1-22.594,8.62c-1.172.216-2.176.359-3.1.5a39.224,39.224,0,0,1-3.933.5.965.965,0,0,1-1-.718l-.418-1.652A17.243,17.243,0,0,1,42.337,8.3,23.184,23.184,0,0,1,57.651,2.7c7.7,0,10.962,1.8,12.8,2.8a5.012,5.012,0,0,0,1,.5c4.435,0,8.284,4.669,10.042,9.339a15.88,15.88,0,0,1,.586,9.482l-.5,2.011C81.584,27.268,81.165,27.556,80.663,27.556ZM69.534,14.769H69.7c.251.072.586.216.669.431l5.858,7.9c1.172,1.509,2.008,2.371,3.6,2.586l.251-1.221a14.8,14.8,0,0,0-.5-8.549C77.734,11.249,74.387,7.8,71.542,7.8a4.789,4.789,0,0,1-2.176-.79C67.693,6.076,64.847,4.5,57.735,4.5A20.92,20.92,0,0,0,43.927,9.524a15.431,15.431,0,0,0-5.021,15.3l.167.79c.669-.072,1.59-.216,2.678-.431.92-.144,1.925-.287,3.1-.5A52.4,52.4,0,0,0,66.6,16.493l2.259-1.509A1.044,1.044,0,0,1,69.534,14.769Z" transform="translate(-36.376 -2.7)"/>
    </g>
    <g id="Grupo_371" data-name="Grupo 371" transform="translate(33.591 15.631)">
      <path id="Trazado_562" data-name="Trazado 562" class="cls-3" d="M81.848,32.122a10.48,10.48,0,0,0-1-.862l-.084.431c-2.594,0-3.849-1.149-5.272-3.089l-5.858-7.9-2.259,1.509A55.627,55.627,0,0,1,45.2,30.685c-3.682.575-5.858,1.006-6.862,1.006l-.084-.359a4.45,4.45,0,0,0-.92.79c-.753.718-.167,2.73.418,4.382,1.59,4.382,2.678,4.813,4.1,4.6,0,0,.084,0,.084-.072,0,.072.084.144.084.216l.418,1.149c2.343,6.537,4.686,12.284,10.962,16.451l.084.072A6.391,6.391,0,0,0,57.33,60.21h4.6a6.123,6.123,0,0,0,3.849-1.293l.084-.072C72.142,54.751,74.485,49,76.828,42.467l.418-1.149c0-.072.084-.144.084-.216,0,0,.084,0,.084.072,1.423.216,2.51-.216,4.1-4.6C82.1,34.852,82.6,32.912,81.848,32.122Z" transform="translate(-36.974 -20.7)"/>
    </g>
    <g id="Grupo_372" data-name="Grupo 372" transform="translate(32.469 14.812)">
      <path id="Trazado_563" data-name="Trazado 563" class="cls-2" d="M61.714,60.823H57.028a7.166,7.166,0,0,1-4.519-1.509l-.084-.072c-6.36-4.31-8.786-9.913-11.3-16.882l-.251-.647c-1.925-.072-3.1-1.509-4.435-5.316-1-2.8-1.088-4.382-.167-5.244l1.088-.934a1.212,1.212,0,0,1,1-.144.824.824,0,0,1,.418.287c.669-.072,1.674-.216,2.845-.431.92-.144,1.925-.287,3.1-.5a52.4,52.4,0,0,0,21.757-8.189l2.259-1.509a1.1,1.1,0,0,1,.837-.144c.251.072.586.216.669.431l5.858,7.9c1.172,1.58,2.092,2.442,3.682,2.586a.824.824,0,0,1,.418-.287,1.232,1.232,0,0,1,1,.072A5.139,5.139,0,0,1,82.467,31.3c.837.862.837,2.442-.167,5.244-1.339,3.807-2.51,5.244-4.435,5.316l-.251.647c-2.51,6.968-4.937,12.643-11.3,16.882h-.084A7.559,7.559,0,0,1,61.714,60.823Zm-20.083-20.9a1.168,1.168,0,0,1,1,.647l.5,1.365C45.563,48.611,47.823,54,53.764,57.95l.084.072s.084,0,.084.072a5.1,5.1,0,0,0,3.1,1.078h4.686a4.69,4.69,0,0,0,3.1-1.078s.084,0,.084-.072l.084-.072C70.835,54,73.178,48.611,75.6,41.93l.5-1.293a1.049,1.049,0,0,1,1.255-.647H77.7c.335,0,1.172,0,2.594-4.023,1-2.945.669-3.448.586-3.52,0-.072-.084-.072-.084-.144h-.251c-3.347,0-4.853-1.724-6.192-3.448l-5.188-7.04-1.423.862A56.613,56.613,0,0,1,45.145,31.3c-1.172.216-2.176.359-3.1.5a39.224,39.224,0,0,1-3.933.5h-.167l-.084.072c-.084.072-.418.575.586,3.52,1.423,4.023,2.259,4.023,2.594,4.023h.586Z" transform="translate(-35.634 -19.561)"/>
    </g>
    <g id="Grupo_373" data-name="Grupo 373" transform="translate(54.114 60.816)">
      <path id="Trazado_564" data-name="Trazado 564" class="cls-2" d="M64.764,85.324H62.5a.952.952,0,0,1-1-.862,1.013,1.013,0,0,1,1-.862h2.259a.952.952,0,0,1,1,.862A1.013,1.013,0,0,1,64.764,85.324Z" transform="translate(-61.5 -83.6)"/>
    </g>
    <g id="Grupo_374" data-name="Grupo 374" transform="translate(31.52 78.991)">
      <path id="Trazado_565" data-name="Trazado 565" class="cls-2" d="M35.839,116.443a.906.906,0,0,1-1-.862l-.335-5.747a.96.96,0,0,1,1-.934.986.986,0,0,1,1.088.862l.335,5.747a1.039,1.039,0,0,1-1.088.934Z" transform="translate(-34.5 -108.9)"/>
    </g>
    <g id="Grupo_375" data-name="Grupo 375" transform="translate(78.54 78.991)">
      <path id="Trazado_566" data-name="Trazado 566" class="cls-2" d="M91.7,116.227h0c-.586,0-1.088-.431-1-.934l.335-5.531a.986.986,0,0,1,1.088-.862.96.96,0,0,1,1,.934l-.335,5.531A1.041,1.041,0,0,1,91.7,116.227Z" transform="translate(-90.689 -108.9)"/>
    </g>
    <g id="Grupo_376" data-name="Grupo 376" transform="translate(51.52 54.638)">
      <path id="Trazado_567" data-name="Trazado 567" class="cls-1" d="M74.383,75l5.1,4.454.251,9.267-4.184-1.868,2.427,3.736L58.4,105.962l4.686-8.62Z" transform="translate(-58.4 -75)"/>
    </g>
    <path id="Trazado_568" data-name="Trazado 568" class="cls-4" d="M90.624,80.763l-8.87-3.233-5.021-4.023L75.31,69.7,72.8,71.927l2.427,4.526L82,81.481C88.7,83.924,96.565,87.444,95.9,95.849l-.084,5.1,8.452-4.885v-.216C105.017,87.444,97.318,83.205,90.624,80.763Z" transform="translate(-9.23 -18.869)"/>
    <g id="Grupo_377" data-name="Grupo 377" transform="translate(50.519 53.829)">
      <path id="Trazado_569" data-name="Trazado 569" class="cls-2" d="M58.2,106.578a1.36,1.36,0,0,1-.586-.144.837.837,0,0,1-.335-1.078l4.686-8.62L73.267,74.4a.886.886,0,0,1,.753-.5,1.092,1.092,0,0,1,.92.287l5.1,4.454a.861.861,0,0,1,.335.647l.167,9.267a.878.878,0,0,1-.5.79,1.224,1.224,0,0,1-1,0l-1.088-.575.669,1.078a.783.783,0,0,1-.167,1.078l-19.5,15.445A1.5,1.5,0,0,1,58.2,106.578ZM74.522,76.263,63.811,97.383l-2.427,4.526L76.447,90.056l-2.008-3.089a.783.783,0,0,1,.167-1.078,1.14,1.14,0,0,1,1.255-.144L78.455,86.9l-.167-7.4Z" transform="translate(-57.203 -73.874)"/>
    </g>
    <g id="Grupo_378" data-name="Grupo 378" transform="translate(50.516 84.809)">
      <path id="Trazado_570" data-name="Trazado 570" class="cls-2" d="M58.2,122.388a.952.952,0,0,1-1-.862v-3.664a.956.956,0,0,1,1-.862,1.013,1.013,0,0,1,1,.862v3.664C59.292,121.957,58.79,122.388,58.2,122.388Z" transform="translate(-57.2 -117)"/>
    </g>
    <path id="Trazado_571" data-name="Trazado 571" class="cls-4" d="M72.8,54.776c5.439-4.095,7.615-9.554,9.874-15.66l.418-1.149c0-.072.084-.144.084-.216,0,0,.084,0,.084.072,1.423.216,2.51-.216,4.1-4.6.586-1.652,1.172-3.664.418-4.382a10.477,10.477,0,0,0-1-.862l.335-1.58a15.907,15.907,0,0,0-.5-9.051c-1.59-4.238-4.686-7.83-7.866-8.549C84.348,22.736,81,41.27,72.8,54.776Z" transform="translate(-9.23 -1.718)"/>
  </g>
</svg>
