<svg xmlns="http://www.w3.org/2000/svg" width="90" height="90" viewBox="0 0 90 90">
  <defs>
    <style>
      .cls-1 {
        fill: #a5a4bf;
      }

      .cls-1, .cls-2, .cls-3 {
        stroke: #502d4b;
        stroke-width: 2px;
      }

      .cls-2 {
        fill: #bfbfc5;
      }

      .cls-3 {
        fill: #b6b6c3;
      }
    </style>
  </defs>
  <g id="Icono_Medicamentos" data-name="Icono Medicamentos" transform="translate(-63.8 -62.1)">
    <g id="Grupo_321" data-name="Grupo 321" transform="translate(64.8 63.1)">
      <g id="Grupo_318" data-name="Grupo 318" transform="translate(8.492)">
        <path id="Trazado_492" data-name="Trazado 492" class="cls-1" d="M102.828,72.543h32.126a1.3,1.3,0,0,0,1.128-1.414V64.514a1.3,1.3,0,0,0-1.128-1.414H102.828a1.3,1.3,0,0,0-1.128,1.414v6.615A1.3,1.3,0,0,0,102.828,72.543Z" transform="translate(-101.7 -63.1)"/>
      </g>
      <path id="Trazado_493" data-name="Trazado 493" class="cls-2" d="M116.2,141.387a13.036,13.036,0,0,0-.3-2.692,1.5,1.5,0,0,1-.46.068H100.408a1.6,1.6,0,1,1,0-3.193h14.314a12.041,12.041,0,0,0-5.017-4.9h0a12.116,12.116,0,0,1-6.513-10.721V118.6H77.925v1.346a12.116,12.116,0,0,1-6.513,10.721A12.125,12.125,0,0,0,64.9,141.41v1.619h51.318v-1.642Zm-20.78-3.9a1.122,1.122,0,0,1-.092.3,1.691,1.691,0,0,1-.161.274,1.989,1.989,0,0,1-.207.251,1.622,1.622,0,0,1-2.255,0,2.425,2.425,0,0,1-.207-.251,1.7,1.7,0,0,1-.161-.274,1.466,1.466,0,0,1-.092-.3,1.391,1.391,0,0,1-.023-.319c0-.114.023-.205.023-.319a1.122,1.122,0,0,1,.092-.3,1.7,1.7,0,0,1,.161-.274,1.991,1.991,0,0,1,.207-.251,2.444,2.444,0,0,1,.253-.205.78.78,0,0,1,.276-.137,1.5,1.5,0,0,1,.3-.091,1.427,1.427,0,0,1,.621,0,1.5,1.5,0,0,1,.3.091l.276.137c.092.068.161.137.253.205a2.426,2.426,0,0,1,.207.251,1.7,1.7,0,0,1,.161.274,1.464,1.464,0,0,1,.092.3,1.491,1.491,0,0,1,.023.319A1.337,1.337,0,0,1,95.415,137.486Z" transform="translate(-64.877 -105.941)"/>
      <path id="Trazado_494" data-name="Trazado 494" class="cls-3" d="M64.8,396.716a9.587,9.587,0,0,0,.713,3.6,9.418,9.418,0,0,0,2.048,3.057,9.54,9.54,0,0,0,6.7,2.76h32.356a9.539,9.539,0,0,0,6.72-2.737,9.372,9.372,0,0,0,2.785-6.638V393.5H64.8Z" transform="translate(-64.8 -318.136)"/>
      <g id="Grupo_320" data-name="Grupo 320" transform="translate(0 40.282)">
        <g id="Grupo_319" data-name="Grupo 319">
          <path id="Trazado_495" data-name="Trazado 495" class="cls-1" d="M64.8,271.542h51.318V239.7H64.8Zm14.705-20.711h6.121v-6.067h9.665v6.067h6.144v9.58H95.315v6.067H85.649v-6.067H79.528v-9.58Z" transform="translate(-64.8 -239.7)"/>
        </g>
      </g>
      <path id="Trazado_496" data-name="Trazado 496" class="cls-1" d="M341.362,316.5a13.64,13.64,0,1,0,8.515,24.338.022.022,0,0,1-.023-.023l-11.575-11.473a1.6,1.6,0,0,1,0-2.258,1.635,1.635,0,0,1,2.278,0l11.575,11.473a.022.022,0,0,0,.023.023,13.556,13.556,0,0,0,2.969-8.44A13.694,13.694,0,0,0,341.362,316.5Zm-3.912,9.74a1.61,1.61,0,0,1-1.128.456,1.525,1.525,0,0,1-.322-.023,1.152,1.152,0,0,1-.3-.091l-.276-.137a1.969,1.969,0,0,1-.253-.205,1.581,1.581,0,0,1-.46-1.118,1.482,1.482,0,0,1,.023-.319,1.125,1.125,0,0,1,.092-.3l.138-.274a1.972,1.972,0,0,1,.207-.251,2.42,2.42,0,0,1,.253-.205.779.779,0,0,1,.276-.137,1.508,1.508,0,0,1,.3-.091,1.424,1.424,0,0,1,.621,0,1.153,1.153,0,0,1,.3.091l.276.137a1.986,1.986,0,0,1,.253.205,2.427,2.427,0,0,1,.207.251.772.772,0,0,1,.138.274,1.462,1.462,0,0,1,.092.3,1.387,1.387,0,0,1,.023.319A1.582,1.582,0,0,1,337.449,326.24Z" transform="translate(-267.123 -258.7)"/>
    </g>
  </g>
</svg>
