<svg xmlns="http://www.w3.org/2000/svg" width="98" height="90" viewBox="0 0 89.859 116.381">
  <g id="_27_113665" data-name="27_113665" transform="translate(-95 -39)">
    <g id="Grupo_398" data-name="Grupo 398" transform="translate(96 40)">
      <path id="Trazado_976" data-name="Trazado 976" d="M138.866,96.865a15.313,15.313,0,0,1-11.5-14.642V81.8A65.494,65.494,0,0,0,100.4,95.33l12.3,11.862A48.652,48.652,0,0,1,138.866,96.865Z" transform="translate(-99.192 -70.733)" fill="#a5a4bf" stroke="#502d4b" stroke-width="2"/>
      <path id="Trazado_977" data-name="Trazado 977" d="M271.5,96.865a48.4,48.4,0,0,1,26.138,10.326l12.3-11.862A65.494,65.494,0,0,0,282.977,81.8v.424A15.288,15.288,0,0,1,271.5,96.865Z" transform="translate(-223.315 -70.733)" fill="#a5a4bf" stroke="#502d4b" stroke-width="2"/>
      <path id="Trazado_978" data-name="Trazado 978" d="M141.525,233.6a46.333,46.333,0,0,1-10.1,14.377A48.245,48.245,0,0,1,98.2,261.507c3.514,19.99,21.58,35.214,43.3,35.214s39.784-15.224,43.3-35.214a48.466,48.466,0,0,1-33.222-13.53A47.086,47.086,0,0,1,141.525,233.6Zm-9.115,32.964c-1.949,2.171-4.009,3.283-6.15,3.283s-4.2-1.112-6.15-3.283a1.829,1.829,0,0,1,.192-2.621,1.994,1.994,0,0,1,2.718.185c1.181,1.324,2.279,1.986,3.24,1.986s2.059-.662,3.24-1.986a1.966,1.966,0,0,1,2.718-.185A1.829,1.829,0,0,1,132.41,266.564Zm21.141-2.409c1.181,1.324,2.279,1.986,3.24,1.986s2.059-.662,3.24-1.986a1.966,1.966,0,0,1,2.718-.185,1.8,1.8,0,0,1,.192,2.621c-1.949,2.171-4.009,3.283-6.15,3.283s-4.2-1.112-6.15-3.283a1.829,1.829,0,0,1,.192-2.621A1.966,1.966,0,0,1,153.551,264.154Z" transform="translate(-97.596 -182.341)" fill="#bfbfc5" stroke="#502d4b" stroke-width="2"/>
      <g id="Grupo_395" data-name="Grupo 395" transform="translate(32.014)">
        <g id="Grupo_394" data-name="Grupo 394">
          <path id="Trazado_979" data-name="Trazado 979" d="M224.516,62.982a11.7,11.7,0,0,0,11.916-11.491,9.183,9.183,0,0,0-.082-1.244,11.956,11.956,0,0,0-23.667,0,9.472,9.472,0,0,0-.082,1.244A11.7,11.7,0,0,0,224.516,62.982ZM219.3,49.638h3.295V46.46a1.923,1.923,0,0,1,3.844,0v3.151h3.295a1.855,1.855,0,1,1,0,3.707h-3.295V56.5a1.923,1.923,0,0,1-3.844,0V53.318H219.3a1.842,1.842,0,1,1,0-3.68Z" transform="translate(-212.6 -40)" fill="#f0f0f7" stroke="#502d4b" stroke-width="2"/>
        </g>
      </g>
      <g id="Grupo_397" data-name="Grupo 397" transform="translate(0 29.654)">
        <g id="Grupo_396" data-name="Grupo 396">
          <path id="Trazado_980" data-name="Trazado 980" d="M142.126,152.053c-.686-.026-1.373-.053-2.059-.053h-.961C115.219,152.424,96,171.222,96,194.363c0,1.165.055,2.3.137,3.442,24.051-.079,43.545-18.772,43.792-41.94h0c.247,23.167,19.741,41.86,43.792,41.94.082-1.139.137-2.277.137-3.442C183.859,171.672,165.354,153.165,142.126,152.053ZM123.154,167.78l-11.175,10.776a1.957,1.957,0,0,1-1.345.556,1.908,1.908,0,0,1-1.345-.556,1.823,1.823,0,0,1,0-2.621l11.175-10.776a1.991,1.991,0,0,1,2.718,0A1.8,1.8,0,0,1,123.154,167.78Zm4.585-4.5-.082.079a1.926,1.926,0,0,1-1.345.53,1.972,1.972,0,0,1-1.373-.556,1.823,1.823,0,0,1,0-2.621l.082-.079a1.991,1.991,0,0,1,2.718,0A1.808,1.808,0,0,1,127.739,163.279Z" transform="translate(-96 -152)" fill="#a5a4bf" stroke="#502d4b" stroke-width="2"/>
        </g>
      </g>
    </g>
  </g>
</svg>
