<svg xmlns="http://www.w3.org/2000/svg" width="98" height="90.04" viewBox="0 0 98 90.04">
  <defs>
    <style>
      .cls-1 {
        fill: #1b3954;
      }

      .cls-1, .cls-2, .cls-3 {
        stroke: #502d4b;
        stroke-width: 2px;
      }

      .cls-2 {
        fill: #a5a4bf;
      }

      .cls-3 {
        fill: #bfbfc5;
      }
    </style>
  </defs>
  <g id="icono_Pacientes" data-name="icono Pacientes" transform="translate(-33.8 -71.26)">
    <g id="Grupo_360" data-name="Grupo 360" transform="translate(34.8 72.3)">
      <path id="Trazado_545" data-name="Trazado 545" class="cls-1" d="M445.071,236.9q.2,2.3.2,4.6a52.09,52.09,0,0,1-1.867,13.864c4.146-.718,7.314-4.693,7.314-9.458A9.576,9.576,0,0,0,445.071,236.9Z" transform="translate(-354.715 -197.486)"/>
      <g id="Grupo_357" data-name="Grupo 357" transform="translate(8.074 0.311)">
        <path id="Trazado_546" data-name="Trazado 546" class="cls-2" d="M72,111.985,106.771,73.6C88.6,76.019,74.192,91.918,72,111.985Z" transform="translate(-72 -73.6)"/>
      </g>
      <g id="Grupo_358" data-name="Grupo 358" transform="translate(7.792)">
        <path id="Trazado_547" data-name="Trazado 547" class="cls-2" d="M110.572,72.3c-.3,0-.608,0-.933.024a1.736,1.736,0,0,1-.434,1.245L71.85,114.779a1.453,1.453,0,0,1-1.064.5h-.065c0,.335-.022.694-.022,1.03a48.192,48.192,0,0,0,1.975,13.721L123.008,74.5A35.954,35.954,0,0,0,110.572,72.3Z" transform="translate(-70.7 -72.3)"/>
      </g>
      <g id="Grupo_359" data-name="Grupo 359" transform="translate(10.896 3.424)">
        <path id="Trazado_548" data-name="Trazado 548" class="cls-2" d="M137.2,86.6a1.535,1.535,0,0,1-.347.575L85.521,143.83a1.308,1.308,0,0,1-.521.359,45.053,45.053,0,0,0,5.513,10.273l56-61.78A39.149,39.149,0,0,0,137.2,86.6Z" transform="translate(-85 -86.6)"/>
      </g>
      <path id="Trazado_549" data-name="Trazado 549" class="cls-1" d="M99,378.872l1.085,1.293-1-1.365Z" transform="translate(-85.066 -305.407)"/>
      <path id="Trazado_550" data-name="Trazado 550" class="cls-3" d="M182.531,130.06l-7.4,8.165a1.453,1.453,0,0,1-1.064.5,1.5,1.5,0,0,1-1.085-.5,1.818,1.818,0,0,1,0-2.371l7.618-8.4a1.216,1.216,0,0,1,.2-.168,42.7,42.7,0,0,0-4.949-6.082l-.065.072-56.215,62.019-.065.072c7.293,8.692,17.711,14.128,29.28,14.128,17.668,0,32.644-12.667,37.875-30.219a47.771,47.771,0,0,0,2-13.769,45.706,45.706,0,0,0-.282-5.2A46.82,46.82,0,0,0,182.531,130.06ZM168.01,141.7a1.671,1.671,0,0,1,.087-.311l.13-.287a2.059,2.059,0,0,1,.2-.263,2.37,2.37,0,0,1,.239-.215.709.709,0,0,1,.26-.144,1.308,1.308,0,0,1,.282-.1,1.417,1.417,0,0,1,1.367.455,1.761,1.761,0,0,1,.434,1.173,1.74,1.74,0,0,1-.022.335,1.671,1.671,0,0,1-.087.311l-.13.287c-.065.1-.13.168-.2.263a1.477,1.477,0,0,1-1.085.5c-.109,0-.2-.024-.3-.024a1.308,1.308,0,0,1-.282-.1l-.26-.144c-.087-.072-.152-.144-.239-.216a2.511,2.511,0,0,1-.2-.263.844.844,0,0,1-.13-.287,1.665,1.665,0,0,1-.087-.311,1.621,1.621,0,0,1-.022-.335A1.775,1.775,0,0,1,168.01,141.7Zm-10.983,43.509a1.414,1.414,0,0,1-.977.383,1.516,1.516,0,0,1-1.172-.6c-2.105-2.8-4.167-4.214-6.121-4.214s-3.994,1.413-6.121,4.214a1.424,1.424,0,0,1-2.149.216,1.8,1.8,0,0,1-.2-2.371c2.713-3.592,5.556-5.436,8.443-5.436s5.73,1.82,8.465,5.436A1.771,1.771,0,0,1,157.027,185.207Zm18.9-26.268c-2.713,3.592-5.556,5.436-8.443,5.436s-5.73-1.82-8.443-5.436a1.8,1.8,0,0,1,.2-2.371,1.424,1.424,0,0,1,2.149.216c2.127,2.8,4.167,4.214,6.121,4.214s3.994-1.413,6.121-4.214a1.424,1.424,0,0,1,2.149-.216A1.846,1.846,0,0,1,175.932,158.938Z" transform="translate(-101.116 -109.491)"/>
      <path id="Trazado_551" data-name="Trazado 551" class="cls-1" d="M39.553,242.538c0-.359,0-.742.022-1.1l.043-2.251.087-.886c-.022.024-.065.024-.087.048A9.7,9.7,0,0,0,34.8,246.92a9.451,9.451,0,0,0,6.577,9.291,50.387,50.387,0,0,1-1.736-10.68C39.575,244.55,39.553,243.544,39.553,242.538Z" transform="translate(-34.8 -198.55)"/>
    </g>
  </g>
</svg>
