<svg xmlns="http://www.w3.org/2000/svg" width="106" height="90" viewBox="0 0 106 90">
  <defs>
    <style>
      .cls-1 {
        fill: #bfbfc5;
      }

      .cls-1, .cls-2 {
        stroke: #502d4b;
        stroke-width: 2px;
      }

      .cls-2 {
        fill: #a5a4bf;
      }
    </style>
  </defs>
  <g id="icono_proveedor" data-name="icono proveedor" transform="translate(-26.4 -125.6)">
    <g id="Grupo_381" data-name="Grupo 381" transform="translate(27.4 126.6)">
      <path id="Trazado_572" data-name="Trazado 572" class="cls-1" d="M37.634,336H29.561c-1.205,0-2.161,1.284-2.161,2.838v7.348c0,1.583.978,2.838,2.161,2.838h4.662c-.023-.418-.045-.806-.045-1.225A21.161,21.161,0,0,1,37.634,336Z" transform="translate(-27.4 -273.45)"/>
      <path id="Trazado_573" data-name="Trazado 573" class="cls-1" d="M202.8,336H161.2a21.247,21.247,0,0,1,3.434,11.829c0,.418-.023.807-.023,1.225h34.773c-.023-.388-.023-.807-.023-1.225A21,21,0,0,1,202.8,336Z" transform="translate(-130.771 -273.45)"/>
      <path id="Trazado_574" data-name="Trazado 574" class="cls-1" d="M432.9,335.93a21.247,21.247,0,0,1,3.434,11.829c0,.388-.023.807-.045,1.225h6.482a2.267,2.267,0,0,0,1.91-2.509v-8.065a2.27,2.27,0,0,0-1.91-2.509H432.9Z" transform="translate(-340.68 -273.38)"/>
      <path id="Trazado_575" data-name="Trazado 575" class="cls-1" d="M86.742,331.862a8.244,8.244,0,0,0-10.188,0c-3.138,2.33-5.253,6.751-5.253,11.829,0,.418.023.807.045,1.225.455,6.96,4.912,12.4,10.325,12.4s9.847-5.436,10.3-12.4c.023-.388.045-.807.045-1.225C92,338.613,89.88,334.192,86.742,331.862Zm-1.16,13.054c-.409,2.36-2.024,4.092-3.934,4.092s-3.525-1.762-3.934-4.092a7.145,7.145,0,0,1-.114-1.225c0-2.927,1.819-5.317,4.048-5.317s4.048,2.39,4.048,5.317A10.5,10.5,0,0,1,85.582,344.916Z" transform="translate(-61.316 -269.312)"/>
      <path id="Trazado_576" data-name="Trazado 576" class="cls-1" d="M358.442,331.862a8.244,8.244,0,0,0-10.189,0c-3.138,2.33-5.253,6.751-5.253,11.829,0,.418.023.807.045,1.225.478,6.96,4.912,12.4,10.325,12.4s9.847-5.436,10.325-12.4c.023-.388.045-.807.045-1.225C363.7,338.613,361.58,334.192,358.442,331.862Zm-1.16,13.054c-.409,2.36-2.024,4.092-3.934,4.092s-3.525-1.762-3.934-4.092a7.145,7.145,0,0,1-.114-1.225c0-2.927,1.819-5.317,4.048-5.317s4.048,2.39,4.048,5.317A7.145,7.145,0,0,1,357.282,344.916Z" transform="translate(-271.226 -269.312)"/>
      <path id="Trazado_578" data-name="Trazado 578" class="cls-1" d="M350.322,183.167h-7.027l-1.41-11.919c-.341-2.927-2.251-5.048-4.5-5.048H323.6v46.539H356.28v-4.481h-.114c-1.3,0-2.342-1.374-2.342-3.077s1.046-3.077,2.342-3.077h.114V191.023C356.28,186.662,353.62,183.167,350.322,183.167Zm-22.31,0v-8.9h9.415l1.069,8.9Z" transform="translate(-256.238 -154.371)"/>
      <g id="Grupo_380" data-name="Grupo 380" transform="translate(3.434)">
        <g id="Grupo_379" data-name="Grupo 379">
          <path id="Trazado_579" data-name="Trazado 579" class="cls-2" d="M93.715,173.647h9.529V126.6H42.5v58.368h60.744v-7.109H93.715c-.887,0-1.592-.926-1.592-2.091S92.828,173.647,93.715,173.647ZM79,176.186H66.72V165.94h-7.8V149.81h7.8V139.564H79V149.81h7.8v16.13H79Zm10.416-.03a1.834,1.834,0,0,1-.091.388l-.136.358c-.068.119-.136.209-.2.329a2.7,2.7,0,0,1-.25.269.717.717,0,0,1-.273.179,1.229,1.229,0,0,1-.3.119,1.151,1.151,0,0,1-.318.03c-.114,0-.2-.03-.318-.03a.943.943,0,0,1-.3-.119l-.273-.179c-.091-.09-.159-.179-.25-.269a3.159,3.159,0,0,1-.2-.329,1.16,1.16,0,0,1-.136-.358,2.4,2.4,0,0,1-.091-.388,2.578,2.578,0,0,1-.023-.418,2.355,2.355,0,0,1,.478-1.494,2.7,2.7,0,0,1,.25-.269,1.665,1.665,0,0,1,.273-.209,1.228,1.228,0,0,1,.3-.119,1.074,1.074,0,0,1,.614,0,1.228,1.228,0,0,1,.3.119,1.664,1.664,0,0,1,.273.209,2.208,2.208,0,0,1,.25.269,2.5,2.5,0,0,1,.478,1.494C89.44,175.887,89.44,176.037,89.417,176.156Z" transform="translate(-42.5 -126.6)"/>
        </g>
      </g>
    </g>
  </g>
</svg>
